<svg width="26" height="27" viewBox="0 0 26 27" fill="none" xmlns="http://www.w3.org/2000/svg">
<path d="M0 24.4688C0 25.8662 1.24777 27 2.78571 27H23.2143C24.7522 27 26 25.8662 26 24.4688V10.125H0V24.4688ZM18.5714 14.1328C18.5714 13.7848 18.8848 13.5 19.2679 13.5H21.5893C21.9723 13.5 22.2857 13.7848 22.2857 14.1328V16.2422C22.2857 16.5902 21.9723 16.875 21.5893 16.875H19.2679C18.8848 16.875 18.5714 16.5902 18.5714 16.2422V14.1328ZM18.5714 20.8828C18.5714 20.5348 18.8848 20.25 19.2679 20.25H21.5893C21.9723 20.25 22.2857 20.5348 22.2857 20.8828V22.9922C22.2857 23.3402 21.9723 23.625 21.5893 23.625H19.2679C18.8848 23.625 18.5714 23.3402 18.5714 22.9922V20.8828ZM11.1429 14.1328C11.1429 13.7848 11.4563 13.5 11.8393 13.5H14.1607C14.5437 13.5 14.8571 13.7848 14.8571 14.1328V16.2422C14.8571 16.5902 14.5437 16.875 14.1607 16.875H11.8393C11.4563 16.875 11.1429 16.5902 11.1429 16.2422V14.1328ZM11.1429 20.8828C11.1429 20.5348 11.4563 20.25 11.8393 20.25H14.1607C14.5437 20.25 14.8571 20.5348 14.8571 20.8828V22.9922C14.8571 23.3402 14.5437 23.625 14.1607 23.625H11.8393C11.4563 23.625 11.1429 23.3402 11.1429 22.9922V20.8828ZM3.71429 14.1328C3.71429 13.7848 4.02768 13.5 4.41071 13.5H6.73214C7.11518 13.5 7.42857 13.7848 7.42857 14.1328V16.2422C7.42857 16.5902 7.11518 16.875 6.73214 16.875H4.41071C4.02768 16.875 3.71429 16.5902 3.71429 16.2422V14.1328ZM3.71429 20.8828C3.71429 20.5348 4.02768 20.25 4.41071 20.25H6.73214C7.11518 20.25 7.42857 20.5348 7.42857 20.8828V22.9922C7.42857 23.3402 7.11518 23.625 6.73214 23.625H4.41071C4.02768 23.625 3.71429 23.3402 3.71429 22.9922V20.8828ZM23.2143 3.375H20.4286V0.84375C20.4286 0.379687 20.0107 0 19.5 0H17.6429C17.1321 0 16.7143 0.379687 16.7143 0.84375V3.375H9.28571V0.84375C9.28571 0.379687 8.86786 0 8.35714 0H6.5C5.98929 0 5.57143 0.379687 5.57143 0.84375V3.375H2.78571C1.24777 3.375 0 4.50879 0 5.90625V8.4375H26V5.90625C26 4.50879 24.7522 3.375 23.2143 3.375Z" fill="#858585"/>
</svg>
