<svg width="30" height="35" viewBox="0 0 30 35" fill="none" xmlns="http://www.w3.org/2000/svg">
<path d="M7.58758 24.7892C6.90868 24.1952 7.26258 24.3627 5.6251 23.9792C4.88214 23.8049 4.22902 23.4699 3.6384 23.0686L0.0939034 30.6728C-0.249062 31.409 0.391557 32.2088 1.29936 32.1787L5.41572 32.0413L8.24695 34.6581C8.87194 35.235 9.9688 35.0552 10.3118 34.319L14.3781 25.5952C13.5313 26.008 12.5914 26.25 11.6196 26.25C10.0961 26.25 8.66491 25.7312 7.58758 24.7892ZM29.9061 30.6728L26.3616 23.0686C25.771 23.4706 25.1179 23.8049 24.3749 23.9792C22.7288 24.3647 23.0898 24.1966 22.4124 24.7892C21.3351 25.7312 19.9031 26.25 18.3797 26.25C17.4078 26.25 16.468 26.0074 15.6211 25.5952L19.6875 34.319C20.0304 35.0552 21.1281 35.235 21.7523 34.6581L24.5843 32.0413L28.7006 32.1787C29.6084 32.2088 30.2491 31.4083 29.9061 30.6728ZM20.5468 23.2423C21.7406 22.1793 21.8773 22.2709 23.5773 21.8655C24.6624 21.6065 25.5108 20.8511 25.8015 19.8845C26.3858 17.9432 26.2343 18.1776 27.8288 16.7572C28.6233 16.0496 28.9335 15.0181 28.6428 14.0515C28.0592 12.1115 28.0585 12.3822 28.6428 10.4402C28.9335 9.4736 28.6233 8.44208 27.8288 7.73458C26.2343 6.3141 26.3858 6.54788 25.8015 4.6072C25.5108 3.64062 24.6624 2.88526 23.5773 2.62618C21.3992 2.10598 21.6617 2.24201 20.0656 0.820847C19.2711 0.113342 18.1125 -0.163508 17.0273 0.0955688C14.85 0.61509 15.1539 0.615773 12.9727 0.0955688C11.8875 -0.163508 10.729 0.112658 9.93443 0.820847C8.33991 2.24133 8.60241 2.10598 6.42353 2.62618C5.33838 2.88526 4.48995 3.64062 4.19933 4.6072C3.61574 6.54788 3.76652 6.3141 2.17201 7.73458C1.37748 8.44208 1.06655 9.4736 1.35795 10.4402C1.94154 12.3788 1.94232 12.1081 1.35795 14.0509C1.06733 15.0174 1.37748 16.049 2.17201 16.7572C3.76652 18.1776 3.61496 17.9432 4.19933 19.8845C4.48995 20.8511 5.33838 21.6065 6.42353 21.8655C8.17195 22.2825 8.30241 22.2169 9.45318 23.2423C10.4868 24.1631 12.0969 24.3278 13.3391 23.6401C13.8358 23.3642 14.412 23.2177 15.0004 23.2177C15.5888 23.2177 16.165 23.3642 16.6617 23.6401C17.9031 24.3278 19.5132 24.1631 20.5468 23.2423ZM7.62976 12.0288C7.62976 8.4038 10.9297 5.46509 15 5.46509C19.0703 5.46509 22.3702 8.4038 22.3702 12.0288C22.3702 15.6539 19.0703 18.5926 15 18.5926C10.9297 18.5926 7.62976 15.6539 7.62976 12.0288Z" fill="#858585"/>
</svg>
